<?xml version="1.0" encoding="UTF-8" standalone="no"?>
<!-- Generator: Adobe Illustrator 18.1.1, SVG Export Plug-In . SVG Version: 6.00 Build 0)  -->

<svg
   xmlns:dc="http://purl.org/dc/elements/1.1/"
   xmlns:cc="http://creativecommons.org/ns#"
   xmlns:rdf="http://www.w3.org/1999/02/22-rdf-syntax-ns#"
   xmlns:svg="http://www.w3.org/2000/svg"
   xmlns="http://www.w3.org/2000/svg"
   xmlns:sodipodi="http://sodipodi.sourceforge.net/DTD/sodipodi-0.dtd"
   xmlns:inkscape="http://www.inkscape.org/namespaces/inkscape"
   version="1.1"
   id="Capa_1"
   x="0px"
   y="0px"
   viewBox="0 0 334.74781 171.60304"
   xml:space="preserve"
   inkscape:version="0.48.5 r10040"
   width="100%"
   height="100%"
   sodipodi:docname="procon-logo.svg"><metadata
     id="metadata3113"><rdf:RDF><cc:Work
         rdf:about=""><dc:format>image/svg+xml</dc:format><dc:type
           rdf:resource="http://purl.org/dc/dcmitype/StillImage" /><dc:title></dc:title></cc:Work></rdf:RDF></metadata><defs
     id="defs3111" /><sodipodi:namedview
     pagecolor="#ff59ff"
     bordercolor="#666666"
     borderopacity="1"
     objecttolerance="10"
     gridtolerance="10"
     guidetolerance="10"
     inkscape:pageopacity="0"
     inkscape:pageshadow="2"
     inkscape:window-width="1680"
     inkscape:window-height="1027"
     id="namedview3109"
     showgrid="false"
     fit-margin-top="0"
     fit-margin-left="0"
     fit-margin-right="0"
     fit-margin-bottom="0"
     inkscape:zoom="0.2935392"
     inkscape:cx="553.07379"
     inkscape:cy="149.2124"
     inkscape:window-x="0"
     inkscape:window-y="0"
     inkscape:window-maximized="1"
     inkscape:current-layer="Capa_1" /><path
     style="fill:#ffffff;fill-opacity:1;stroke:none"
     d="M 249.25039,8.9007825 C 196.82783,9.5386045 144.35848,8.5577305 91.942671,9.4046035 55.719697,12.513899 24.22894,43.452822 21.0629,79.775782 c -3.80826,30.054298 9.281355,61.931468 34.96875,78.406248 17.196091,11.59784 38.615033,14.53664 58.99997,13.07395 50.22929,-0.34187 100.53992,0.82947 150.71877,-0.63645 36.35034,-4.24032 66.76877,-36.48225 68.625,-73.031256 C 337.25286,67.995432 323.29951,37.032902 297.93798,21.426407 283.57705,12.2773 266.23247,8.3764865 249.25039,8.9007825 z"
     id="rect4294-1"
     inkscape:connector-curvature="0" /><path
     style="fill:#999999;fill-opacity:1;stroke:none"
     d="M 0,1.9999987 C 0,39.208331 0,76.416665 0,113.625 c 97.489583,0 194.97916,0 292.46874,0 0,-37.875002 0,-75.750002 0,-113.6250013125766 -97.48958,0 -194.979157,0 -292.46874,0 L 0,0.99999869 0,1.9999987 z"
     id="rect3152-3"
     inkscape:connector-curvature="0" /><rect
     style="fill:#444444;fill-opacity:0.70196078;stroke:none"
     id="rect4294"
     width="305.85266"
     height="154.16965"
     x="24.65403"
     y="13.143875"
     ry="75.263916" /><g
     id="g3079"
     transform="translate(5.66063,-42.829483)" /><g
     id="g3081"
     transform="translate(5.66063,-42.829483)" /><g
     id="g3083"
     transform="translate(5.66063,-42.829483)" /><g
     id="g3085"
     transform="translate(5.66063,-42.829483)" /><g
     id="g3087"
     transform="translate(5.66063,-42.829483)" /><g
     id="g3089"
     transform="translate(5.66063,-42.829483)" /><g
     id="g3091"
     transform="translate(5.66063,-42.829483)" /><g
     id="g3093"
     transform="translate(5.66063,-42.829483)" /><g
     id="g3095"
     transform="translate(5.66063,-42.829483)" /><g
     id="g3097"
     transform="translate(5.66063,-42.829483)" /><g
     id="g3099"
     transform="translate(5.66063,-42.829483)" /><g
     id="g3101"
     transform="translate(5.66063,-42.829483)" /><g
     id="g3103"
     transform="translate(5.66063,-42.829483)" /><g
     id="g3105"
     transform="translate(5.66063,-42.829483)" /><g
     id="g3107"
     transform="translate(5.66063,-42.829483)" /><g
     transform="matrix(0.85954089,0,0,0.85954089,49.566747,100.64807)"
     style="font-size:18.20150375px;font-style:normal;font-weight:normal;text-align:start;line-height:125%;letter-spacing:0px;word-spacing:0px;text-anchor:start;fill:#f2f2f2;fill-opacity:1;stroke:none;font-family:Arial;-inkscape-font-specification:Arial"
     id="flowRoot3117"><path
       d="m 12.377843,30.147428 11.975956,0 c 2.608293,2.3e-5 4.559221,0.620292 5.852792,1.860806 1.304133,1.240558 1.956209,3.005935 1.956233,5.29614 -2.4e-5,2.353854 -0.710415,4.193452 -2.13118,5.5188 -1.410202,1.325371 -3.567887,1.98805 -6.47306,1.988041 l -3.944274,0 0,8.651952 -7.236467,0 0,-23.315739 m 7.236467,9.940202 1.76538,0 c 1.388965,1.5e-5 2.36443,-0.238551 2.926397,-0.715694 C 24.868025,38.884219 25.149,38.26395 25.149016,37.51113 25.149,36.779547 24.905134,36.15928 24.417417,35.650324 23.929671,35.141405 23.012521,34.886936 21.665969,34.886916 l -2.051659,0 0,5.200714"
       style="font-variant:normal;font-weight:bold;font-stretch:normal;fill:#f2f2f2;font-family:Arial Black;-inkscape-font-specification:Arial Black"
       id="path4156"
       inkscape:connector-curvature="0" /><path
       d="m 36.043478,53.463167 0,-23.315739 12.007765,0 c 2.226588,2.3e-5 3.928348,0.190876 5.105287,0.572557 1.1769,0.381725 2.125856,1.092117 2.846874,2.131178 0.720973,1.028499 1.081471,2.284939 1.081495,3.769326 -2.4e-5,1.293566 -0.275698,2.412169 -0.827026,3.355811 -0.551371,0.933066 -1.309477,1.691172 -2.274317,2.274319 -0.614989,0.371112 -1.457916,0.678595 -2.528788,0.92245 0.858815,0.286289 1.484383,0.572566 1.87671,0.858835 0.265052,0.19086 0.646756,0.59907 1.145112,1.224633 0.508916,0.625577 0.848208,1.108008 1.017877,1.447293 l 3.483046,6.759337 -8.143014,0 -3.848847,-7.125137 c -0.487744,-0.922442 -0.922463,-1.521505 -1.304155,-1.797189 -0.519552,-0.360489 -1.108011,-0.540737 -1.765379,-0.540746 l -0.636173,0 0,9.463072 -7.236467,0 m 7.236467,-13.868571 3.037725,0 c 0.328677,1.5e-5 0.96485,-0.106011 1.90852,-0.318086 0.477115,-0.09542 0.864119,-0.339278 1.161016,-0.731599 0.307467,-0.392291 0.461209,-0.842913 0.461225,-1.351867 -1.6e-5,-0.752787 -0.238581,-1.330645 -0.715696,-1.733571 -0.477144,-0.402892 -1.373086,-0.604346 -2.687829,-0.604366 l -3.164961,0 0,4.739489"
       style="font-variant:normal;font-weight:bold;font-stretch:normal;fill:#f2f2f2;font-family:Arial Black;-inkscape-font-specification:Arial Black"
       id="path4158"
       inkscape:connector-curvature="0" /><path
       d="m 59.820442,41.821203 c -10e-7,-3.80642 1.060287,-6.769922 3.180866,-8.890517 2.12057,-2.120556 5.07347,-3.180843 8.858708,-3.180866 3.880638,2.3e-5 6.870648,1.044407 8.97004,3.133152 2.099346,2.078183 3.14903,4.993973 3.149055,8.747378 -2.5e-5,2.72495 -0.46125,4.962156 -1.383675,6.711624 -0.911873,1.738877 -2.237231,3.096044 -3.976081,4.071508 -1.72829,0.964863 -3.885974,1.447293 -6.473061,1.447294 -2.629525,-1e-6 -4.808416,-0.418815 -6.536677,-1.256442 -1.717673,-0.837626 -3.111951,-2.162985 -4.182837,-3.97608 -1.070894,-1.813087 -1.606339,-4.082101 -1.606338,-6.807051 m 7.204659,0.03182 c -7e-6,2.353849 0.43471,4.045006 1.304156,5.073479 0.880028,1.028485 2.072851,1.542725 3.578472,1.54272 1.548005,5e-6 2.74613,-0.503632 3.594378,-1.510911 0.848212,-1.007267 1.272328,-2.815056 1.272346,-5.423374 -1.8e-5,-2.194783 -0.44534,-3.795816 -1.335964,-4.803106 -0.880054,-1.017859 -2.078179,-1.526798 -3.594376,-1.526816 -1.452608,1.8e-5 -2.618924,0.514257 -3.498952,1.542719 -0.88005,1.028496 -1.320067,2.730256 -1.32006,5.105289"
       style="font-variant:normal;font-weight:bold;font-stretch:normal;fill:#f2f2f2;font-family:Arial Black;-inkscape-font-specification:Arial Black"
       id="path4160"
       inkscape:connector-curvature="0" /><path
       d="m 103.44601,43.936477 6.31401,1.908519 c -0.42413,1.770687 -1.09212,3.249789 -2.00394,4.437307 -0.91187,1.187524 -2.04638,2.083468 -3.40353,2.68783 -1.34658,0.604364 -3.06425,0.906547 -5.152998,0.906547 -2.5341,0 -4.606961,-0.365799 -6.21859,-1.097398 -1.601042,-0.7422 -2.984716,-2.041052 -4.151028,-3.896559 -1.16632,-1.855499 -1.749478,-4.230543 -1.749476,-7.125138 -2e-6,-3.859434 1.023175,-6.822937 3.069533,-8.890517 2.056954,-2.078142 4.96214,-3.117225 8.715572,-3.117248 2.936977,2.3e-5 5.243107,0.593784 6.918377,1.781285 1.68584,1.187543 2.93698,3.011236 3.75342,5.471086 l -6.36173,1.415486 c -0.22267,-0.710377 -0.45594,-1.229918 -0.69979,-1.558625 -0.40292,-0.551331 -0.89596,-0.975447 -1.4791,-1.272345 -0.58317,-0.296863 -1.235248,-0.445302 -1.95623,-0.445322 -1.632856,2e-5 -2.883996,0.657397 -3.753421,1.972138 -0.657387,0.975479 -0.986077,2.507594 -0.986068,4.59635 -9e-6,2.587111 0.392297,4.363092 1.17692,5.327947 0.784603,0.954266 1.887301,1.431395 3.308099,1.43139 1.37836,5e-6 2.41744,-0.387 3.11725,-1.161016 0.71037,-0.774004 1.22461,-1.897908 1.54272,-3.371717"
       style="font-variant:normal;font-weight:bold;font-stretch:normal;fill:#f2f2f2;font-family:Arial Black;-inkscape-font-specification:Arial Black"
       id="path4162"
       inkscape:connector-curvature="0" /><path
       d="m 112.33652,41.821203 c 0,-3.80642 1.06029,-6.769922 3.18087,-8.890517 2.12056,-2.120556 5.07347,-3.180843 8.8587,-3.180866 3.88064,2.3e-5 6.87065,1.044407 8.97004,3.133152 2.09935,2.078183 3.14903,4.993973 3.14906,8.747378 -3e-5,2.72495 -0.46125,4.962156 -1.38368,6.711624 -0.91187,1.738877 -2.23723,3.096044 -3.97608,4.071508 -1.72829,0.964863 -3.88597,1.447293 -6.47306,1.447294 -2.62952,-1e-6 -4.80841,-0.418815 -6.53668,-1.256442 -1.71767,-0.837626 -3.11195,-2.162985 -4.18283,-3.97608 -1.0709,-1.813087 -1.60634,-4.082101 -1.60634,-6.807051 m 7.20466,0.03182 c -1e-5,2.353849 0.43471,4.045006 1.30415,5.073479 0.88003,1.028485 2.07286,1.542725 3.57848,1.54272 1.548,5e-6 2.74613,-0.503632 3.59438,-1.510911 0.84821,-1.007267 1.27232,-2.815056 1.27234,-5.423374 -2e-5,-2.194783 -0.44534,-3.795816 -1.33596,-4.803106 -0.88006,-1.017859 -2.07818,-1.526798 -3.59438,-1.526816 -1.45261,1.8e-5 -2.61892,0.514257 -3.49895,1.542719 -0.88005,1.028496 -1.32007,2.730256 -1.32006,5.105289"
       style="font-variant:normal;font-weight:bold;font-stretch:normal;fill:#f2f2f2;font-family:Arial Black;-inkscape-font-specification:Arial Black"
       id="path4164"
       inkscape:connector-curvature="0" /><path
       d="m 140.45537,30.147428 6.72753,0 8.77919,12.898408 0,-12.898408 6.79114,0 0,23.315739 -6.79114,0 -8.73148,-12.80298 0,12.80298 -6.77524,0 0,-23.315739"
       style="font-variant:normal;font-weight:bold;font-stretch:normal;fill:#f2f2f2;font-family:Arial Black;-inkscape-font-specification:Arial Black"
       id="path4166"
       inkscape:connector-curvature="0" /><path
       d="m 209.89008,53.463167 -19.43508,0 c 0.22267,-1.919119 0.89594,-3.721608 2.01985,-5.40747 1.13451,-1.696454 3.25508,-3.695095 6.36173,-5.995929 1.89792,-1.410171 3.11193,-2.481061 3.6421,-3.212675 0.53012,-0.731583 0.79519,-1.426071 0.79521,-2.083465 -2e-5,-0.710376 -0.26509,-1.31474 -0.79521,-1.813094 -0.51956,-0.50892 -1.17694,-0.763388 -1.97215,-0.763408 -0.82703,2e-5 -1.50562,0.259791 -2.03575,0.779311 -0.51955,0.519561 -0.86944,1.436709 -1.04968,2.75145 l -6.48896,-0.524843 c 0.25447,-1.823679 0.72098,-3.244464 1.39957,-4.262358 0.67859,-1.028459 1.63285,-1.813072 2.86279,-2.353842 1.24052,-0.551326 2.95288,-0.827001 5.13708,-0.827024 2.27961,2.3e-5 4.05029,0.259794 5.31205,0.779312 1.27233,0.519563 2.26901,1.320081 2.99001,2.401554 0.73159,1.070909 1.09739,2.274335 1.09741,3.61028 -2e-5,1.420803 -0.41884,2.77797 -1.25644,4.071507 -0.82705,1.293564 -2.33797,2.714349 -4.53275,4.26236 -1.30415,0.901252 -2.17889,1.532124 -2.62421,1.892615 -0.43473,0.360503 -0.94897,0.832331 -1.54272,1.415484 l 10.11515,0 0,5.280235"
       style="font-variant:normal;font-weight:bold;font-stretch:normal;fill:#f2f2f2;font-family:Arial Black;-inkscape-font-specification:Arial Black"
       id="path4184"
       inkscape:connector-curvature="0" /><path
       d="m 212.68924,41.709873 c 0,-4.431989 0.79521,-7.53333 2.38566,-9.30403 1.60103,-1.770659 4.03439,-2.656 7.30008,-2.656023 1.56922,2.3e-5 2.85746,0.196177 3.86475,0.588461 1.00727,0.381725 1.82898,0.885362 2.46518,1.51091 0.63615,0.614989 1.13448,1.267065 1.495,1.956231 0.37108,0.678604 0.66796,1.473819 0.89065,2.385649 0.43469,1.738889 0.65205,3.551981 0.65207,5.439279 -2e-5,4.230558 -0.71571,7.326597 -2.14708,9.288126 -1.4314,1.961533 -3.89658,2.942299 -7.39552,2.9423 -1.96153,-1e-6 -3.54667,-0.312785 -4.75539,-0.938355 -1.20874,-0.62557 -2.2001,-1.542718 -2.9741,-2.751448 -0.56197,-0.858831 -1.00198,-2.030447 -1.32006,-3.514857 -0.3075,-1.494996 -0.46124,-3.143744 -0.46124,-4.946243 m 6.42535,0.01593 c 0,2.968816 0.25977,4.999267 0.77932,6.091358 0.53013,1.081498 1.29354,1.622244 2.29022,1.62224 0.65736,4e-6 1.22462,-0.227958 1.70176,-0.683886 0.48772,-0.466521 0.84292,-1.19812 1.06559,-2.194796 0.23325,-0.996664 0.34989,-2.549985 0.34989,-4.659968 0,-3.096028 -0.26508,-5.174189 -0.79521,-6.234496 -0.51955,-1.070872 -1.30417,-1.606316 -2.35383,-1.606335 -1.07091,1.9e-5 -1.84492,0.546066 -2.32204,1.638144 -0.47714,1.08151 -0.7157,3.090756 -0.7157,6.027739"
       style="font-variant:normal;font-weight:bold;font-stretch:normal;fill:#f2f2f2;font-family:Arial Black;-inkscape-font-specification:Arial Black"
       id="path4186"
       inkscape:connector-curvature="0" /><path
       d="m 249.12606,29.74982 0,23.713347 -6.55258,0 0,-15.538524 c -1.06029,0.805834 -2.08879,1.457911 -3.08545,1.956231 -0.98606,0.498349 -2.2266,0.975479 -3.7216,1.431389 l 0,-5.312043 c 2.20539,-0.710376 3.91775,-1.563906 5.13708,-2.560597 1.21933,-0.996649 2.1736,-2.226583 2.8628,-3.689803 l 5.35975,0"
       style="font-variant:normal;font-weight:bold;font-stretch:normal;fill:#f2f2f2;font-family:Arial Black;-inkscape-font-specification:Arial Black"
       id="path4188"
       inkscape:connector-curvature="0" /><path
       d="m 274.95468,35.395856 -6.44126,0.795215 c -0.16965,-0.901227 -0.45593,-1.5374 -0.85883,-1.908519 -0.39232,-0.371081 -0.88005,-0.556632 -1.4632,-0.556651 -1.04968,1.9e-5 -1.86612,0.530163 -2.44925,1.590432 -0.42414,0.763426 -0.73691,2.396267 -0.93836,4.898532 0.77399,-0.784599 1.56922,-1.362455 2.38563,-1.73357 0.81642,-0.38169 1.76007,-0.572541 2.83098,-0.572557 2.07816,1.6e-5 3.83293,0.742216 5.26434,2.226606 1.44196,1.484415 2.16296,3.366425 2.16298,5.646036 -2e-5,1.537422 -0.36582,2.942304 -1.09739,4.214646 -0.72102,1.272347 -1.72829,2.237209 -3.02183,2.894586 -1.28297,0.646776 -2.89459,0.970163 -4.83491,0.970164 -2.33264,-1e-6 -4.20406,-0.397609 -5.61422,-1.192824 -1.4102,-0.795215 -2.53941,-2.062258 -3.38763,-3.801135 -0.83764,-1.749469 -1.25644,-4.060895 -1.25644,-6.934284 0,-4.20933 0.88533,-7.289465 2.65601,-9.240413 1.77069,-1.961511 4.22525,-2.942277 7.3637,-2.9423 1.85551,2.3e-5 3.3187,0.217383 4.3896,0.652076 1.08149,0.424139 1.97743,1.049709 2.68784,1.876712 0.71037,0.827045 1.25112,1.866126 1.62224,3.117248 M 263.02643,45.78138 c 0,1.261748 0.31809,2.253116 0.95427,2.974107 0.63616,0.710397 1.41548,1.065595 2.33792,1.065591 0.84822,4e-6 1.55863,-0.323385 2.13118,-0.970164 0.57254,-0.646771 0.85883,-1.611633 0.85885,-2.894587 -2e-5,-1.31475 -0.2969,-2.316721 -0.89065,-3.005918 -0.59378,-0.689176 -1.33067,-1.033769 -2.2107,-1.033782 -0.90126,1.3e-5 -1.65936,0.334003 -2.27431,1.001974 -0.60438,0.667992 -0.90656,1.622249 -0.90656,2.862779"
       style="font-variant:normal;font-weight:bold;font-stretch:normal;fill:#f2f2f2;font-family:Arial Black;-inkscape-font-specification:Arial Black"
       id="path4190"
       inkscape:connector-curvature="0" /></g><rect
     style="fill:#7aa93e;fill-opacity:1;stroke:none"
     id="rect3152"
     width="284.45944"
     height="105.60771"
     x="4.0046535"
     y="4.0086427"
     ry="0" /><g
     transform="translate(-3.016766,-1.3576323)"
     style="font-size:40px;font-style:normal;font-weight:normal;text-align:start;line-height:125%;letter-spacing:0px;word-spacing:0px;text-anchor:start;fill:#ffffff;fill-opacity:1;stroke:none;font-family:Arial;-inkscape-font-specification:Arial"
     id="flowRoot3117-4"><path
       d="m 30.4875,39.9475 c -1.154999,0.559999 -3.010002,0.945 -4.83,0.945 -5.529994,0 -8.96,-3.675007 -8.96,-10.255 0,-6.964993 3.850005,-10.465 9.03,-10.465 1.994998,0 3.570001,0.455001 4.69,0.98 l 0.875,-3.325 c -0.734999,-0.385 -2.625003,-1.05 -5.705,-1.05 -7.419993,0 -13.16,4.970009 -13.16,14.07 0,8.539991 5.005007,13.475 12.46,13.475 2.904997,0 5.180001,-0.560001 6.3,-1.12 l -0.7,-3.255"
       style="font-size:35px;font-variant:normal;font-weight:bold;font-stretch:normal;letter-spacing:1.80000019px;fill:#ffffff;font-family:Adobe Heiti Std;-inkscape-font-specification:Adobe Heiti Std Bold"
       id="path4225"
       inkscape:connector-curvature="0" /><path
       d="m 40.840624,15.8675 -4.06,0 0,28.07 4.06,0 0,-28.07"
       style="font-size:35px;font-variant:normal;font-weight:bold;font-stretch:normal;letter-spacing:1.80000019px;fill:#ffffff;font-family:Adobe Heiti Std;-inkscape-font-specification:Adobe Heiti Std Bold"
       id="path4227"
       inkscape:connector-curvature="0" /><path
       d="m 55.684139,24.2325 c -5.109995,0 -9.1,3.675007 -9.1,10.185 0,6.229994 3.815005,9.905 8.82,9.905 4.339996,0 9.03,-2.975007 9.03,-10.185 0,-5.914994 -3.465005,-9.905 -8.75,-9.905 m 4.585,10.01 c 0,3.849996 -1.820003,7.035 -4.76,7.035 -2.974997,0 -4.76,-3.185004 -4.76,-6.965 0,-3.324997 1.330004,-7.035 4.795,-7.035 3.394997,0 4.725,3.780003 4.725,6.965"
       style="font-size:35px;font-variant:normal;font-weight:bold;font-stretch:normal;letter-spacing:1.80000019px;fill:#ffffff;font-family:Adobe Heiti Std;-inkscape-font-specification:Adobe Heiti Std Bold"
       id="path4229"
       inkscape:connector-curvature="0" /><path
       d="m 85.933673,24.6525 -4.06,0 0,11.935 c 0,2.904997 -2.170001,4.375 -4.025,4.375 -2.659997,0 -3.605,-2.205003 -3.605,-5.53 l 0,-10.815 -4.06,0 0,11.48 c 0,6.159994 2.905004,8.225 6.23,8.225 3.114997,0 5.005001,-1.855001 5.81,-3.185 l 0.105,0 0.21,2.8 3.57,0 c -0.07,-1.539998 -0.175,-3.360002 -0.175,-5.53 l 0,-13.755"
       style="font-size:35px;font-variant:normal;font-weight:bold;font-stretch:normal;letter-spacing:1.80000019px;fill:#ffffff;font-family:Adobe Heiti Std;-inkscape-font-specification:Adobe Heiti Std Bold"
       id="path4231"
       inkscape:connector-curvature="0" /><path
       d="m 109.07164,15.8675 -4.06,0 0,10.955 -0.07,0 c -0.84,-1.469999 -2.625,-2.59 -5.110002,-2.59 -4.304996,0 -8.05,3.710007 -8.05,10.255 0,5.949994 3.325004,9.835 7.7,9.835 2.729992,0 4.830002,-1.435002 5.845002,-3.395 l 0.105,0 0.21,3.01 3.57,0 c -0.07,-1.329999 -0.14,-3.395002 -0.14,-5.145 l 0,-22.925 m -4.06,20.16 c 0,2.694997 -1.71501,5.005 -4.34,5.005 -3.079999,0 -4.760002,-2.905004 -4.760002,-6.685 0,-3.814996 1.715003,-6.895 4.830002,-6.895 2.275,0 4.27,1.855003 4.27,5.005 l 0,3.57"
       style="font-size:35px;font-variant:normal;font-weight:bold;font-stretch:normal;letter-spacing:1.80000019px;fill:#ffffff;font-family:Adobe Heiti Std;-inkscape-font-specification:Adobe Heiti Std Bold"
       id="path4233"
       inkscape:connector-curvature="0" /><path
       d="m 145.08274,17.1625 -3.745,0 0,9.87 c 0,4.269996 0.105,7.700004 0.42,11.34 l -0.105,0.035 c -1.155,-2.834997 -2.66,-5.915003 -4.34,-8.855 l -7,-12.39 -4.41,0 0,26.775 3.745,0 0,-10.01 c 0,-4.689995 -0.07,-8.155003 -0.28,-11.55 l 0.14,-0.035 c 1.225,3.009997 2.835,6.160003 4.445,9.065 l 7.035,12.53 4.095,0 0,-26.775"
       style="font-size:35px;font-variant:normal;font-weight:bold;font-stretch:normal;letter-spacing:1.80000019px;fill:#ffffff;font-family:Adobe Heiti Std;-inkscape-font-specification:Adobe Heiti Std Bold"
       id="path4235"
       inkscape:connector-curvature="0" /><path
       d="m 165.74719,40.2975 c -1.26,0.524999 -2.73,0.91 -4.865,0.91 -3.04499,0 -5.74,-1.645004 -5.845,-5.985 l 12.25,0 c 0.07,-0.49 0.105,-1.050001 0.105,-1.715 0,-4.759995 -2.17,-9.275 -7.595,-9.275 -5.45999,0 -8.68,4.585006 -8.68,10.325 0,5.879994 3.36001,9.765 9.17,9.765 2.625,0 4.76,-0.525001 6.125,-1.155 l -0.665,-2.87 m -10.675,-7.98 c 0.21,-2.239998 1.47001,-5.18 4.445,-5.18 3.115,0 4.06,2.870002 4.025,5.18 l -8.47,0"
       style="font-size:35px;font-variant:normal;font-weight:bold;font-stretch:normal;letter-spacing:1.80000019px;fill:#ffffff;font-family:Adobe Heiti Std;-inkscape-font-specification:Adobe Heiti Std Bold"
       id="path4237"
       inkscape:connector-curvature="0" /><path
       d="m 173.91609,24.6525 -2.73,0 0,3.045 2.73,0 0,9.975 c 0,2.519997 0.455,4.130001 1.435,5.18 0.84,0.944999 2.205,1.47 3.815,1.47 1.365,0 2.45,-0.175 3.15,-0.455 l -0.14,-3.115 c -0.49,0.14 -0.98,0.245 -1.785,0.245 -1.715,0 -2.45,-1.155002 -2.45,-3.535 l 0,-9.765 4.585,0 0,-3.045 -4.585,0 0,-4.76 -4.025,1.26 0,3.5"
       style="font-size:35px;font-variant:normal;font-weight:bold;font-stretch:normal;letter-spacing:1.80000019px;fill:#ffffff;font-family:Adobe Heiti Std;-inkscape-font-specification:Adobe Heiti Std Bold"
       id="path4239"
       inkscape:connector-curvature="0" /><path
       d="m 208.69101,24.6525 -2.24,9.1 c -0.525,2.239998 -0.98,4.305002 -1.295,6.3 l -0.105,0 c -0.385,-2.029998 -0.91,-4.095002 -1.505,-6.335 l -2.52,-9.065 -3.325,0 -2.66,9.275 c -0.56,1.994998 -1.155,4.130002 -1.54,6.125 l -0.07,0 c -0.35,-2.029998 -0.805,-4.095002 -1.26,-6.16 l -2.135,-9.24 -4.2,0 5.53,19.285 3.675,0 2.625,-8.505 c 0.595,-1.924998 1.12,-3.885002 1.505,-6.195 l 0.105,0 c 0.42,2.274998 0.84,4.130002 1.435,6.16 l 2.485,8.54 3.675,0 5.845,-19.285 -4.025,0"
       style="font-size:35px;font-variant:normal;font-weight:bold;font-stretch:normal;letter-spacing:1.80000019px;fill:#ffffff;font-family:Adobe Heiti Std;-inkscape-font-specification:Adobe Heiti Std Bold"
       id="path4241"
       inkscape:connector-curvature="0" /><path
       d="m 225.53336,24.2325 c -5.11,0 -9.1,3.675007 -9.1,10.185 0,6.229994 3.815,9.905 8.82,9.905 4.34,0 9.03,-2.975007 9.03,-10.185 0,-5.914994 -3.46501,-9.905 -8.75,-9.905 m 4.585,10.01 c 0,3.849996 -1.82,7.035 -4.76,7.035 -2.975,0 -4.76,-3.185004 -4.76,-6.965 0,-3.324997 1.33,-7.035 4.795,-7.035 3.395,0 4.725,3.780003 4.725,6.965"
       style="font-size:35px;font-variant:normal;font-weight:bold;font-stretch:normal;letter-spacing:1.80000019px;fill:#ffffff;font-family:Adobe Heiti Std;-inkscape-font-specification:Adobe Heiti Std Bold"
       id="path4243"
       inkscape:connector-curvature="0" /><path
       d="m 249.79789,24.3375 c -0.35,-0.07 -0.63,-0.105 -1.015,-0.105 -2.09999,0 -4.13,1.505002 -5.005,3.955 l -0.14,0 -0.14,-3.535 -3.535,0 c 0.105,1.784998 0.14,3.640002 0.14,5.88 l 0,13.405 4.06,0 0,-10.22 c 0,-3.359997 1.71501,-5.6 4.445,-5.6 0.455,0 0.84,0.035 1.19,0.105 l 0,-3.885"
       style="font-size:35px;font-variant:normal;font-weight:bold;font-stretch:normal;letter-spacing:1.80000019px;fill:#ffffff;font-family:Adobe Heiti Std;-inkscape-font-specification:Adobe Heiti Std Bold"
       id="path4245"
       inkscape:connector-curvature="0" /><path
       d="m 263.15446,32.5975 6.79,-7.945 -4.795,0 -4.795,6.44 c -0.49,0.664999 -1.015,1.505001 -1.47,2.24 l -0.07,0 0,-17.465 -4.06,0 0,28.07 4.06,0 0,-6.93 1.575,-1.925 5.53,8.855 4.9,0 -7.665,-11.34"
       style="font-size:35px;font-variant:normal;font-weight:bold;font-stretch:normal;letter-spacing:1.80000019px;fill:#ffffff;font-family:Adobe Heiti Std;-inkscape-font-specification:Adobe Heiti Std Bold"
       id="path4247"
       inkscape:connector-curvature="0" /><path
       d="m 285.37476,25.3525 c -1.05,-0.594999 -2.695,-1.12 -4.585,-1.12 -4.06,0 -6.685,2.555003 -6.685,5.775 0,2.239998 1.505,4.165001 4.935,5.53 2.31,0.979999 3.115,1.785001 3.115,3.255 0,1.469999 -1.05,2.52 -3.22,2.52 -1.645,0 -3.43,-0.700001 -4.41,-1.295 l -0.91,3.01 c 1.295,0.769999 3.22,1.295 5.25,1.295 4.375,0 7.21,-2.205004 7.21,-5.915 0,-2.799997 -1.68,-4.550001 -4.865,-5.845 -2.345,-1.014999 -3.22,-1.680001 -3.22,-3.01 0,-1.294999 0.98,-2.345 2.8,-2.345 1.575,0 2.905,0.595 3.675,1.085 l 0.91,-2.94"
       style="font-size:35px;font-variant:normal;font-weight:bold;font-stretch:normal;letter-spacing:1.80000019px;fill:#ffffff;font-family:Adobe Heiti Std;-inkscape-font-specification:Adobe Heiti Std Bold"
       id="path4249"
       inkscape:connector-curvature="0" /></g><g
     transform="translate(56.762617,45.765977)"
     style="font-size:40px;font-style:normal;font-weight:normal;text-align:start;line-height:125%;letter-spacing:0px;word-spacing:0px;text-anchor:start;fill:#ffffff;fill-opacity:1;stroke:none;font-family:Arial;-inkscape-font-specification:Arial"
     id="flowRoot3117-4-7"><path
       d="m 25.0975,17.1625 -4.97,0 -8.19,26.775 4.165,0 2.31,-7.875 8.19,0 2.415,7.875 4.27,0 -8.19,-26.775 m -6.055,15.785 2.135,-7.035 c 0.455,-1.644998 0.875,-3.605002 1.26,-5.25 l 0.07,0 c 0.385,1.644998 0.84,3.535002 1.33,5.285 l 2.1,7 -6.895,0"
       style="font-size:35px;font-variant:normal;font-weight:bold;font-stretch:normal;letter-spacing:1.80000007px;fill:#ffffff;font-family:Adobe Heiti Std;-inkscape-font-specification:Adobe Heiti Std Bold"
       id="path4200"
       inkscape:connector-curvature="0" /><path
       d="m 42.197968,27.5925 -0.21,-2.94 -3.57,0 c 0.07,1.714998 0.14,3.710003 0.14,6.23 l 0,20.86 4.06,0 0,-10.08 0.07,0 c 0.944999,1.574998 2.835002,2.66 5.145,2.66 4.059996,0 8.155,-3.185007 8.155,-10.255 0,-5.984994 -3.255004,-9.835 -7.595,-9.835 -2.694997,0 -4.795001,1.190002 -6.125,3.36 l -0.07,0 m 0.42,5.005 c 0,-2.834997 2.065002,-5.11 4.48,-5.11 3.114997,0 4.76,3.045004 4.76,6.72 0,3.989996 -1.715003,6.895 -4.865,6.895 -1.994998,0 -4.375,-1.470003 -4.375,-4.935 l 0,-3.57"
       style="font-size:35px;font-variant:normal;font-weight:bold;font-stretch:normal;letter-spacing:1.80000007px;fill:#ffffff;font-family:Adobe Heiti Std;-inkscape-font-specification:Adobe Heiti Std Bold"
       id="path4202"
       inkscape:connector-curvature="0" /><path
       d="m 65.394452,27.5925 -0.21,-2.94 -3.57,0 c 0.07,1.714998 0.14,3.710003 0.14,6.23 l 0,20.86 4.06,0 0,-10.08 0.07,0 c 0.944999,1.574998 2.835002,2.66 5.145,2.66 4.059996,0 8.155,-3.185007 8.155,-10.255 0,-5.984994 -3.255005,-9.835 -7.595,-9.835 -2.694998,0 -4.795002,1.190002 -6.125,3.36 l -0.07,0 m 0.42,5.005 c 0,-2.834997 2.065002,-5.11 4.48,-5.11 3.114996,0 4.76,3.045004 4.76,6.72 0,3.989996 -1.715004,6.895 -4.865,6.895 -1.994998,0 -4.375,-1.470003 -4.375,-4.935 l 0,-3.57"
       style="font-size:35px;font-variant:normal;font-weight:bold;font-stretch:normal;letter-spacing:1.80000007px;fill:#ffffff;font-family:Adobe Heiti Std;-inkscape-font-specification:Adobe Heiti Std Bold"
       id="path4204"
       inkscape:connector-curvature="0" /><path
       d="m 89.010939,15.8675 -4.06,0 0,28.07 4.06,0 0,-28.07"
       style="font-size:35px;font-variant:normal;font-weight:bold;font-stretch:normal;letter-spacing:1.80000007px;fill:#ffffff;font-family:Adobe Heiti Std;-inkscape-font-specification:Adobe Heiti Std Bold"
       id="path4206"
       inkscape:connector-curvature="0" /><path
       d="m 100.38945,19.3325 c 0,-1.364999 -0.945001,-2.38 -2.345,-2.38 -1.399999,0 -2.38,1.015001 -2.38,2.38 0,1.294999 0.945001,2.345 2.345,2.345 1.469999,0 2.38,-1.050001 2.38,-2.345 m -0.35,5.285 -4.06,0 0,19.32 4.06,0 0,-19.32"
       style="font-size:35px;font-variant:normal;font-weight:bold;font-stretch:normal;letter-spacing:1.80000007px;fill:#ffffff;font-family:Adobe Heiti Std;-inkscape-font-specification:Adobe Heiti Std Bold"
       id="path4208"
       inkscape:connector-curvature="0" /><path
       d="m 119.50133,40.2975 c -0.91,0.385 -2.03,0.77 -3.64,0.77 -3.36,0 -5.845,-2.520004 -5.845,-6.755 0,-3.779996 2.1,-6.86 5.88,-6.86 1.645,0 2.765,0.42 3.465,0.77 l 0.805,-3.115 c -0.84,-0.42 -2.45,-0.875 -4.305,-0.875 -6.195,0 -9.975,4.410006 -9.975,10.255 0,6.019994 3.64,9.835 9.205,9.835 2.24,0 4.06,-0.56 4.97,-0.98 l -0.56,-3.045"
       style="font-size:35px;font-variant:normal;font-weight:bold;font-stretch:normal;letter-spacing:1.80000007px;fill:#ffffff;font-family:Adobe Heiti Std;-inkscape-font-specification:Adobe Heiti Std Bold"
       id="path4210"
       inkscape:connector-curvature="0" /><path
       d="m 138.99766,32.0725 c 0,-4.094996 -1.57501,-7.84 -7.245,-7.84 -2.59,0 -4.865,0.735001 -6.23,1.61 l 0.84,2.695 c 1.225,-0.804999 2.975,-1.33 4.69,-1.33 3.885,0 3.885,2.870001 3.885,4.305 -6.61499,0 -10.78,2.380005 -10.78,7.175 0,2.974997 2.065,5.635 5.67,5.635 2.415,0 4.305,-1.120002 5.39,-2.625 l 0.105,0 0.28,2.24 3.675,0 c -0.245,-1.259999 -0.28,-2.940002 -0.28,-4.585 l 0,-7.28 m -3.955,5.355 c 0,2.239998 -1.82,3.92 -4.025,3.92 -1.505,0 -2.835,-0.945002 -2.835,-3.08 0,-3.429997 3.675,-4.025 6.86,-4.025 l 0,3.185"
       style="font-size:35px;font-variant:normal;font-weight:bold;font-stretch:normal;letter-spacing:1.80000007px;fill:#ffffff;font-family:Adobe Heiti Std;-inkscape-font-specification:Adobe Heiti Std Bold"
       id="path4212"
       inkscape:connector-curvature="0" /><path
       d="m 146.68641,24.6525 -2.73,0 0,3.045 2.73,0 0,9.975 c 0,2.519997 0.455,4.130001 1.435,5.18 0.84,0.944999 2.205,1.47 3.815,1.47 1.365,0 2.45,-0.175 3.15,-0.455 l -0.14,-3.115 c -0.49,0.14 -0.98,0.245 -1.785,0.245 -1.715,0 -2.45,-1.155002 -2.45,-3.535 l 0,-9.765 4.585,0 0,-3.045 -4.585,0 0,-4.76 -4.025,1.26 0,3.5"
       style="font-size:35px;font-variant:normal;font-weight:bold;font-stretch:normal;letter-spacing:1.80000007px;fill:#ffffff;font-family:Adobe Heiti Std;-inkscape-font-specification:Adobe Heiti Std Bold"
       id="path4214"
       inkscape:connector-curvature="0" /><path
       d="m 165.01132,19.3325 c 0,-1.364999 -0.945,-2.38 -2.345,-2.38 -1.4,0 -2.38,1.015001 -2.38,2.38 0,1.294999 0.945,2.345 2.345,2.345 1.47,0 2.38,-1.050001 2.38,-2.345 m -0.35,5.285 -4.06,0 0,19.32 4.06,0 0,-19.32"
       style="font-size:35px;font-variant:normal;font-weight:bold;font-stretch:normal;letter-spacing:1.80000007px;fill:#ffffff;font-family:Adobe Heiti Std;-inkscape-font-specification:Adobe Heiti Std Bold"
       id="path4216"
       inkscape:connector-curvature="0" /><path
       d="m 179.5732,24.2325 c -5.10999,0 -9.1,3.675007 -9.1,10.185 0,6.229994 3.81501,9.905 8.82,9.905 4.34,0 9.03,-2.975007 9.03,-10.185 0,-5.914994 -3.46501,-9.905 -8.75,-9.905 m 4.585,10.01 c 0,3.849996 -1.82,7.035 -4.76,7.035 -2.975,0 -4.76,-3.185004 -4.76,-6.965 0,-3.324997 1.33,-7.035 4.795,-7.035 3.395,0 4.725,3.780003 4.725,6.965"
       style="font-size:35px;font-variant:normal;font-weight:bold;font-stretch:normal;letter-spacing:1.80000007px;fill:#ffffff;font-family:Adobe Heiti Std;-inkscape-font-specification:Adobe Heiti Std Bold"
       id="path4218"
       inkscape:connector-curvature="0" /><path
       d="m 210.06773,32.1425 c 0,-5.949994 -3.36,-7.91 -6.37,-7.91 -2.90499,0 -4.935,1.645002 -5.845,3.29 l -0.105,0 -0.21,-2.87 -3.535,0 c 0.07,1.644998 0.14,3.290002 0.14,5.425 l 0,13.86 4.06,0 0,-11.62 c 0,-3.079997 2.13501,-4.725 4.13,-4.725 2.765,0 3.675,2.310003 3.675,5.04 l 0,11.305 4.06,0 0,-11.795"
       style="font-size:35px;font-variant:normal;font-weight:bold;font-stretch:normal;letter-spacing:1.80000007px;fill:#ffffff;font-family:Adobe Heiti Std;-inkscape-font-specification:Adobe Heiti Std Bold"
       id="path4220"
       inkscape:connector-curvature="0" /><path
       d="m 227.49742,25.3525 c -1.04999,-0.594999 -2.695,-1.12 -4.585,-1.12 -4.05999,0 -6.685,2.555003 -6.685,5.775 0,2.239998 1.50501,4.165001 4.935,5.53 2.31,0.979999 3.115,1.785001 3.115,3.255 0,1.469999 -1.05,2.52 -3.22,2.52 -1.64499,0 -3.43,-0.700001 -4.41,-1.295 l -0.91,3.01 c 1.295,0.769999 3.22001,1.295 5.25,1.295 4.375,0 7.21,-2.205004 7.21,-5.915 0,-2.799997 -1.68,-4.550001 -4.865,-5.845 -2.34499,-1.014999 -3.22,-1.680001 -3.22,-3.01 0,-1.294999 0.98001,-2.345 2.8,-2.345 1.575,0 2.90501,0.595 3.675,1.085 l 0.91,-2.94"
       style="font-size:35px;font-variant:normal;font-weight:bold;font-stretch:normal;letter-spacing:1.80000007px;fill:#ffffff;font-family:Adobe Heiti Std;-inkscape-font-specification:Adobe Heiti Std Bold"
       id="path4222"
       inkscape:connector-curvature="0" /></g><g
     transform="translate(-2.659766,49.608787)"
     style="font-size:40px;font-style:normal;font-weight:normal;text-align:start;line-height:125%;letter-spacing:0px;word-spacing:0px;text-anchor:start;fill:#ffffff;fill-opacity:1;stroke:none;font-family:Arial;-inkscape-font-specification:Arial"
     id="flowRoot3117-4-7-0"><path
       d="m 23.9425,30.5955 c 0,-3.275997 -1.260005,-6.272 -5.796,-6.272 -2.071998,0 -3.892001,0.588001 -4.984,1.288 l 0.672,2.156 c 0.979999,-0.643999 2.380001,-1.064 3.752,-1.064 3.107997,0 3.108,2.296001 3.108,3.444 -5.291995,0 -8.624,1.904004 -8.624,5.74 0,2.379998 1.652003,4.508 4.536,4.508 1.931998,0 3.444001,-0.896001 4.312,-2.1 l 0.084,0 0.224,1.792 2.94,0 c -0.196,-1.007999 -0.224,-2.352001 -0.224,-3.668 l 0,-5.824 m -3.164,4.284 c 0,1.791998 -1.456002,3.136 -3.22,3.136 -1.203999,0 -2.268,-0.756002 -2.268,-2.464 0,-2.743997 2.940003,-3.22 5.488,-3.22 l 0,2.548"
       style="font-size:28px;font-variant:normal;font-weight:bold;font-stretch:normal;fill:#ffffff;font-family:Adobe Heiti Std;-inkscape-font-specification:Adobe Heiti Std Bold"
       id="path4193"
       inkscape:connector-curvature="0" /><path
       d="m 40.7495,30.6515 c 0,-4.759995 -2.688002,-6.328 -5.096,-6.328 -2.323998,0 -3.948001,1.316001 -4.676,2.632 l -0.084,0 -0.168,-2.296 -2.828,0 c 0.056,1.315999 0.112,2.632002 0.112,4.34 l 0,11.088 3.248,0 0,-9.296 c 0,-2.463998 1.708002,-3.78 3.304,-3.78 2.211998,0 2.94,1.848002 2.94,4.032 l 0,9.044 3.248,0 0,-9.436"
       style="font-size:28px;font-variant:normal;font-weight:bold;font-stretch:normal;fill:#ffffff;font-family:Adobe Heiti Std;-inkscape-font-specification:Adobe Heiti Std Bold"
       id="path4195"
       inkscape:connector-curvature="0" /><path
       d="m 57.73325,17.6315 -3.248,0 0,8.764 -0.056,0 c -0.671999,-1.175999 -2.100002,-2.072 -4.088,-2.072 -3.443997,0 -6.44,2.968005 -6.44,8.204 0,4.759995 2.660003,7.868 6.16,7.868 2.183998,0 3.864001,-1.148002 4.676,-2.716 l 0.084,0 0.168,2.408 2.856,0 c -0.056,-1.063999 -0.112,-2.716001 -0.112,-4.116 l 0,-18.34 m -3.248,16.128 c 0,2.155998 -1.372002,4.004 -3.472,4.004 -2.463998,0 -3.808,-2.324003 -3.808,-5.348 0,-3.051997 1.372002,-5.516 3.864,-5.516 1.819998,0 3.416,1.484003 3.416,4.004 l 0,2.856"
       style="font-size:28px;font-variant:normal;font-weight:bold;font-stretch:normal;fill:#ffffff;font-family:Adobe Heiti Std;-inkscape-font-specification:Adobe Heiti Std Bold"
       id="path4197"
       inkscape:connector-curvature="0" /></g></svg>